<svg width="134" height="273" viewBox="0 0 134 273" fill="none" xmlns="http://www.w3.org/2000/svg">
<path d="M53 79L33 89L8 143L40 159L47 222L33 243L92 272C161.308 169.276 130.174 115.376 89.2214 92.0659C77.2312 85.241 64.3992 81.0383 53 79Z" fill="#039FEC" stroke="black"/>
<path d="M92 48C82 23.3333 53.6 -18.6 20 11C22.3333 14.5 27.7 21 30.5 19C34 16.5 60.5 9 33.5 46L38.5 66H47L92 48Z" fill="#FF4D4D"/>
<path d="M20 11C16.1579 18.3381 15.5432 22.8372 15 31L1 37L8 48V66H26L33 89L53 79L47 66H38.5L33.5 46C60.5 9 34 16.5 30.5 19C27.7 21 22.3333 14.5 20 11Z" fill="#C3A1A1"/>
<path d="M20 11C16.1579 18.3381 15.5432 22.8372 15 31L1 37L8 48V66H26L33 89L53 79L47 66M20 11C53.6 -18.6 82 23.3333 92 48L47 66M20 11C22.3333 14.5 27.7 21 30.5 19C34 16.5 60.5 9 33.5 46L38.5 66H47" stroke="black"/>
<path d="M20.5 21.5C23 21.3333 27.8 21.4 27 23" stroke="black"/>
<path d="M22.5 24L22 28" stroke="black"/>
<path d="M21 23.5C22.6667 23.8333 26 24.8 26 26" stroke="black"/>
<path d="M8.5 53.5C11 54.5 16.6 55.9 19 53.5" stroke="black"/>
</svg>
